<svg width="27" height="31" viewBox="0 0 27 31" fill="none" xmlns="http://www.w3.org/2000/svg">
    <path d="M0 8.29097L4.10209 5.94366V22.5115H0V8.29097Z" fill="#41E278"/>
    <path d="M8.20459 8.29103L4.1025 5.94373V22.5116H8.20459V8.29103Z" fill="#33B05D"/>
    <path d="M0 22.5114L4.10209 20.1413L8.20418 22.5114L4.10209 24.8815L0 22.5114Z" fill="#49FF87"/>
    <path d="M24.622 8.2954L24.6037 13.0216L10.2555 4.73763L12.3066 1.18511L24.622 8.2954Z" fill="#41E278"/>
    <path d="M20.5189 15.4008L24.6028 13.0219L10.2546 4.73801L8.20355 8.29052L20.5189 15.4008Z" fill="#33B05D"/>
    <path d="M12.3063 1.18537L12.3078 5.92294L8.20423 8.2904L8.20271 3.55284L12.3063 1.18537Z" fill="#49FF87"/>
    <path d="M8.2047 22.5115L8.22292 27.2376L22.5711 18.9537L20.5201 15.4012L8.2047 22.5115Z" fill="#41E278"/>
    <path d="M12.3063 29.6164L8.22239 27.2375L22.5706 18.9536L24.6216 22.5061L12.3063 29.6164Z" fill="#33B05D"/>
    <path d="M20.5198 15.4011L20.5183 20.1387L24.6219 22.5062L24.6235 17.7686L20.5198 15.4011Z" fill="#49FF87"/>
</svg>
