<svg width="274" height="66" viewBox="0 0 274 66" fill="none" xmlns="http://www.w3.org/2000/svg">
<path d="M5.13342 0.421875H59.8388C62.5578 0.421875 64.7612 2.64407 64.7612 5.38619V60.5563C64.7612 63.2983 62.5578 65.5205 59.8388 65.5205H5.13342C2.4144 65.5205 0.210938 63.2983 0.210938 60.5563V5.38619C0.210938 2.64407 2.4144 0.421875 5.13342 0.421875Z" fill="url(#paint0_linear_7182_788)"/>
<path d="M37.5351 11.0343C39.0817 10.6069 41.5534 12.0742 42.4011 14.1112C42.4361 14.1895 42.521 14.2323 42.6059 14.1967C42.9236 14.0613 44.5904 13.3776 44.9151 13.5343C45.0978 13.6223 45.3981 13.8363 45.7117 14.06C46.2114 14.4161 46.7452 14.7965 46.8926 14.7308C46.9845 14.6881 44.2371 9.48877 40.1482 9.48877C37.0759 9.48877 35.1057 11.6825 35.3105 11.9246C35.3105 11.9246 36.5038 11.3192 37.5351 11.0343Z" fill="black"/>
<path fill-rule="evenodd" clip-rule="evenodd" d="M54.3362 47.6506L50.7205 55.0222H52.6072C53.9487 55.0222 55.0355 56.1049 55.0355 57.4581V65.5206H9.89258V61.2971C9.89258 60.3569 10.4999 59.5236 11.39 59.2388L11.9973 59.0463L14.6454 48.1491C14.8079 47.4583 15.3377 46.9098 16.0226 46.7318L17.9579 46.219C18.4593 46.0837 18.8689 45.706 19.0453 45.2075L20.9876 39.7447C20.9938 39.7275 20.9975 39.7089 20.9986 39.69C21.0008 39.6465 20.9887 39.6013 20.9593 39.5666L18.1204 35.9342C18.0071 35.7919 18.1343 35.5924 18.3038 35.6279L21.9129 36.3829C21.9321 36.3894 21.9523 36.3915 21.9729 36.3892C21.9982 36.3864 22.0236 36.3773 22.0471 36.3615L27.9158 32.7648C28.3183 32.5083 28.8198 32.8929 28.6856 33.3559C28.5937 33.6693 28.9893 33.8758 29.194 33.6265C29.194 33.6265 29.9639 31.0697 31.8635 29.8872C34.0318 28.534 35.4303 27.3376 36.3766 26.262C35.8046 26.5611 35.2112 26.789 34.6109 26.8745C34.3851 26.9101 34.2859 26.6039 34.4767 26.4828C35.4656 25.8774 37.231 24.5028 38.7847 21.8106L38.8387 21.6807L38.8431 21.6705C38.8854 21.5681 38.9269 21.4668 38.9755 21.3689C38.792 21.4686 38.5942 21.5683 38.3825 21.6538C38.1906 21.73 38.0226 21.5504 38.0597 21.3812C38.0678 21.3449 38.085 21.3091 38.1137 21.2763C38.6152 20.6924 39.3571 19.7308 40.0137 18.4986C40.056 18.3775 40.0913 18.2706 40.1266 18.1567C39.3214 18.1211 38.2339 17.9573 37.6972 17.3946C36.7862 16.4403 36.1998 13.7835 37.1251 14.1753C37.8104 14.4602 39.7453 15.3505 40.7765 16.2621L40.8673 16.0033L40.9247 15.8419C40.9247 15.8419 42.7044 14.5385 44.8092 14.1326C44.8834 14.1159 45.7698 14.6849 46.5334 15.1753C47.0772 15.5244 47.5588 15.8337 47.6411 15.8633C47.8429 15.9377 47.9635 15.7581 48.1157 15.5318C48.2407 15.3462 48.3867 15.1291 48.6157 14.9944C48.7286 14.9302 48.8841 14.9659 48.8345 15.0799C48.5168 15.8206 48.0929 17.0884 48.3543 17.9288C48.572 18.6298 49.2157 19.3447 49.8407 20.0392L49.8429 20.0414L49.8517 20.0513L50.0102 20.2273C50.1014 20.3289 50.19 20.4287 50.2753 20.5285C50.5436 20.9486 50.7911 21.4046 50.8403 21.7963C50.8826 22.1879 51.0168 22.6794 51.0594 23.1424C51.0944 23.5269 50.9039 23.9045 50.558 24.0683C50.4517 24.1253 50.3458 24.1394 50.2539 24.0968C49.901 23.9329 50.1058 22.8362 50.1128 22.8076C50.1128 22.7792 50.1554 22.6509 50.5014 22.4445C50.5484 22.4153 50.5911 22.3837 50.6289 22.3506C50.7087 22.2806 50.7664 22.204 50.7973 22.1304C50.8594 21.9833 50.8153 21.8485 50.6286 21.8034C50.1977 21.6966 49.8444 22.3305 49.8444 22.3305C49.6679 21.8391 49.1312 21.9387 48.8981 22.0313C48.658 22.1311 48.2768 21.7108 48.2415 21.9102C48.215 22.0344 48.5007 22.2828 48.7882 22.4646C48.8867 22.5269 48.9852 22.5815 49.072 22.6204C49.1385 22.6504 49.1977 22.6712 49.244 22.6794C49.5267 22.7364 49.8867 23.1067 49.9153 23.2563C49.9436 23.3989 50.0635 24.1111 49.244 24.3105C48.4249 24.5171 46.5676 23.121 46.5676 23.121C46.8643 23.7051 48.5378 24.6524 49.7175 24.5954C50.1646 24.5768 50.5694 24.4135 50.6874 24.3659L50.7205 24.3532C50.7205 24.3532 50.558 25.9343 48.9194 26.2334C48.658 26.4899 48.5378 26.8318 48.9051 27.2235C49.6326 27.9927 49.7245 28.8118 49.1029 29.2036C49.019 29.2535 48.9312 29.2089 48.9058 29.136C48.901 29.1218 48.8984 29.1066 48.8984 29.0908C48.8988 29.072 48.9032 29.0522 48.9124 29.0325C49.1098 28.6409 49.2017 27.9715 48.1496 27.3304C47.5209 26.9458 47.3867 26.4259 47.4503 25.9272C47.3856 25.8806 47.3231 25.8309 47.2617 25.7791C47.1911 25.7199 47.1224 25.6578 47.0536 25.5945L46.9555 25.5032C46.4717 25.0532 45.9566 24.5739 44.9151 24.5739C44.2228 24.5739 43.2695 24.4813 42.3302 24.2606C42.6934 24.4594 43.0636 24.6207 43.4221 24.7335C43.7952 24.8509 44.1563 24.9158 44.4842 24.9158C45.2397 24.9158 45.7202 25.1652 46.1084 25.4786C46.3911 25.7064 46.497 26.0983 46.3628 26.44C45.4588 28.6694 46.6595 33.6053 46.6595 33.6053C46.6522 33.7333 46.5253 33.8189 46.4051 33.769L45.7978 33.5268C45.7202 33.4913 45.6283 33.5196 45.5787 33.591L42.0335 38.5481C42.0122 38.5837 41.9982 38.6193 41.9982 38.655L41.6806 49.5949L47.5209 47.736L43.7427 40.2147C43.439 39.6023 43.4952 38.8686 43.8982 38.3201L46.0025 35.4285C46.2003 35.158 46.6239 35.2505 46.6875 35.5853L48.8911 47.3015L52.9447 46.0124C53.9197 45.706 54.788 46.7246 54.3362 47.6506ZM45.8544 18.5983C45.8544 18.5983 45.3033 18.0499 44.2724 17.9786C44.2724 17.9786 44.1592 18.8263 44.9504 18.9758C45.6283 19.104 45.8544 18.5983 45.8544 18.5983ZM37.3512 15.4787C37.3512 15.4787 37.2663 17.0884 38.4247 17.473C38.9979 17.6633 39.4343 17.7403 39.7291 17.7694C40.0299 17.7992 40.1832 17.7792 40.1832 17.7792C40.1832 17.7792 39.8372 15.7493 37.3512 15.4787ZM17.5535 52.3304C17.3428 52.4646 17.1656 52.6492 17.0399 52.8713L13.8969 58.4623L30.3565 53.2173L27.6547 49.9584C27.5132 49.7874 27.5205 49.5382 27.6757 49.3743L28.9117 48.0567C29.0459 47.9142 29.0672 47.7005 28.9679 47.5296L27.9863 45.8487C27.8595 45.6279 27.9441 45.3359 28.1772 45.2291L33.7068 42.5582C34.0105 42.4086 34.3568 42.6508 34.3285 42.9856L34.0741 46.4398C34.0248 47.0666 33.7425 47.6579 33.276 48.0781L31.1223 50.0296C31.0804 50.0674 31.0466 50.1128 31.0223 50.1627C31.0072 50.1939 30.9958 50.2268 30.9881 50.2605C30.9686 50.3458 30.9742 50.4368 31.0091 50.521L31.8738 52.7339L39.8019 50.2075L36.1858 39.9584C36.1689 39.9154 36.1391 39.8815 36.1031 39.8598C36.0498 39.8276 35.9833 39.8218 35.9244 39.8516C35.9244 39.8516 33.2693 41.5751 27.7602 44.1462C27.5485 44.246 27.3084 44.0894 27.3084 43.8543V42.6435C27.3084 42.4369 27.0261 42.3799 26.9481 42.5724L24.2574 49.0893C23.9044 49.9369 23.1912 50.585 22.3155 50.8485L17.9435 52.152C17.8814 52.1706 17.8207 52.193 17.7619 52.2189C17.6895 52.2508 17.6196 52.288 17.5535 52.3304Z" fill="black"/>
<path d="M47.2033 13.2423C47.1963 13.2067 48.072 10.7209 46.3206 9.68112L46.3136 9.68818C45.8753 9.42468 47.8106 9.46026 48.5168 10.7281C48.8845 11.385 48.9484 12.53 48.9904 13.2763C48.9973 13.404 49.004 13.5199 49.0113 13.6198C49.0323 13.8691 48.7639 14.1611 47.9801 14.6739C47.8389 14.7665 47.2033 13.2423 47.2033 13.2423Z" fill="black"/>
<path d="M48.6097 17.8721C48.7439 18.3137 49.0757 18.7696 49.4643 19.2325C49.5277 19.3037 49.6478 19.2896 49.6901 19.204C49.7607 19.0616 49.8597 18.8835 49.9303 18.7482C49.9586 18.6983 49.909 18.6413 49.8526 18.6485C49.6054 18.6983 49.3442 18.563 49.3442 18.563C49.3442 18.563 49.5843 18.1072 49.9162 18.0431C50.0081 18.0217 50.0856 17.9647 50.1069 17.8721C50.1281 17.7653 50.1423 17.6585 50.1423 17.63C50.1423 17.5872 50.1351 17.5089 50.121 17.4163C50.5095 17.3166 51.0462 17.1029 51.4064 16.6257C51.6818 16.2696 51.929 14.8166 51.6395 14.8238C51.2157 14.8309 50.4035 15.2511 49.676 15.8138C49.6195 15.6998 49.5631 15.593 49.4995 15.4933C49.4501 15.422 49.3442 15.422 49.3088 15.5075C49.0262 16.177 48.3767 17.1029 48.6166 17.8721H48.6097Z" fill="black"/>
<path d="M96.5338 0.540961H89.1668C81.4166 0.540961 75.0762 6.91636 75.0762 14.702V25.0611C75.0762 32.8468 81.4166 39.2223 89.1668 39.2223H110.437C118.18 39.2223 124.52 32.8468 124.52 25.0611V17.2827H100.836V22.5895H119.235V25.0611C119.235 29.9318 115.273 33.9155 110.429 33.9155H89.1597C84.3157 33.9155 80.3538 29.9318 80.3538 25.0611V14.702C80.3538 9.83144 84.3157 5.84773 89.1597 5.84773H110.429C113.618 5.84773 116.524 7.59242 118.078 10.3258H123.826C121.961 4.58284 116.567 0.533691 110.429 0.533691H96.5338V0.540961Z" fill="url(#paint1_linear_7182_788)"/>
<path d="M134.319 25.0585V14.6974C134.319 9.82592 138.277 5.84146 143.116 5.84146H167.773C172.613 5.84146 176.57 9.81865 176.57 14.6974V25.0585C176.57 29.9299 172.613 33.9144 167.773 33.9144H143.116C138.277 33.9144 134.319 29.9299 134.319 25.0585ZM160.883 0.533691H143.116C135.381 0.533691 129.047 6.91027 129.047 14.6974V25.0585C129.047 32.8456 135.381 39.2223 143.116 39.2223H167.773C175.509 39.2223 181.843 32.8456 181.843 25.0585V14.6974C181.843 6.91027 175.509 0.533691 167.773 0.533691H160.876H160.883Z" fill="url(#paint2_linear_7182_788)"/>
<path d="M207.691 0.533691L181.174 39.2223H187.578L210.676 5.52786L230.134 33.9082H202.836L199.505 39.2223H233.767H240.172L213.654 0.533691H207.691Z" fill="url(#paint3_linear_7182_788)"/>
<path d="M227.43 0.533691V5.84773H247.838V39.2223H253.116V5.84773H273.522V0.533691H227.43Z" fill="url(#paint4_linear_7182_788)"/>
<path d="M94.5403 47.1626V63.3205L78.8798 47.1626H75.0762V65.5777H77.5687V49.4124L93.2292 65.5777H97.0326V47.1626H94.5403Z" fill="url(#paint5_linear_7182_788)"/>
<path d="M101.895 65.5777H122.845V63.0501H101.895V65.5777ZM101.895 57.6302H119.954V55.1028H101.895V57.6302ZM101.895 49.69H122.845V47.1626H101.895V49.69Z" fill="url(#paint6_linear_7182_788)"/>
<path d="M127.705 47.1626V49.69H137.353V65.5777H139.846V49.69H149.494V47.1626H127.705Z" fill="url(#paint7_linear_7182_788)"/>
<path d="M187.331 47.1626L177.853 63.7295L176.508 61.3848L176.457 61.2898L172.286 53.9923V53.9996L168.374 47.1626H165.482L170.84 56.5272L166.726 63.7295L157.24 47.1626H154.355L164.875 65.5777H168.555L172.286 59.0619L173.609 61.3848H173.623L176.016 65.5777H179.696L190.223 47.1626H187.331Z" fill="url(#paint8_linear_7182_788)"/>
<path d="M197.578 58.8355V53.9048C197.578 51.5893 199.445 49.69 201.738 49.69H213.403C215.695 49.69 217.563 51.5893 217.563 53.9048V58.8355C217.563 61.1583 215.695 63.0501 213.403 63.0501H201.738C199.453 63.0501 197.578 61.1583 197.578 58.8355ZM210.137 47.1626H201.738C198.077 47.1626 195.084 50.1939 195.084 53.9048V58.8355C195.084 62.5461 198.083 65.5777 201.738 65.5777H213.403C217.058 65.5777 220.057 62.5388 220.057 58.8355V53.9048C220.057 50.1939 217.058 47.1626 213.403 47.1626H210.144H210.137Z" fill="url(#paint9_linear_7182_788)"/>
<path d="M234.213 47.1626H224.918V49.6879H241.686C243.423 49.6879 244.835 51.1258 244.835 52.8849V52.9142C244.82 54.6512 243.4 56.0818 241.686 56.0818H224.918V65.5777H227.41V58.6144H239.574L244.323 65.5777H247.543L242.723 58.5123C242.789 58.4977 242.845 58.4903 242.903 58.4759L243.026 58.4466C245.533 57.8189 247.321 55.5198 247.321 52.8922C247.321 49.7463 244.776 47.1771 241.678 47.1771H234.198L234.213 47.1626Z" fill="url(#paint10_linear_7182_788)"/>
<path d="M270.292 47.1626L263.871 55.1028H254.908V47.1626H252.406V65.5777H254.908V57.6302H263.871L270.292 65.5777H273.524L266.085 56.3665L273.524 47.1626H270.292Z" fill="url(#paint11_linear_7182_788)"/>
<defs>
<linearGradient id="paint0_linear_7182_788" x1="-4.11613" y1="22.6656" x2="69.4051" y2="46.2291" gradientUnits="userSpaceOnUse">
<stop offset="0.1" stop-color="#D39820"/>
<stop offset="1" stop-color="#FFFD96"/>
</linearGradient>
<linearGradient id="paint1_linear_7182_788" x1="75.8304" y1="6.1089" x2="124.01" y2="30.8" gradientUnits="userSpaceOnUse">
<stop stop-color="#FCF68D"/>
<stop offset="1" stop-color="#EACB5B"/>
</linearGradient>
<linearGradient id="paint2_linear_7182_788" x1="129.047" y1="10.417" x2="178.894" y2="34.6009" gradientUnits="userSpaceOnUse">
<stop stop-color="#E7C554"/>
<stop offset="0.43756" stop-color="#E4BB49"/>
<stop offset="1" stop-color="#F2DD70"/>
</linearGradient>
<linearGradient id="paint3_linear_7182_788" x1="182.431" y1="32.9712" x2="240.682" y2="38.2928" gradientUnits="userSpaceOnUse">
<stop stop-color="#F5E477"/>
<stop offset="1" stop-color="#BF9D45"/>
</linearGradient>
<linearGradient id="paint4_linear_7182_788" x1="227.43" y1="0.533691" x2="271.616" y2="8.26927" gradientUnits="userSpaceOnUse">
<stop stop-color="#D1B75A"/>
<stop offset="1" stop-color="#B58F3B"/>
</linearGradient>
<linearGradient id="paint5_linear_7182_788" x1="75.0762" y1="48.0917" x2="99.1198" y2="60.0183" gradientUnits="userSpaceOnUse">
<stop stop-color="#FBF38A"/>
<stop offset="1" stop-color="#F4E378"/>
</linearGradient>
<linearGradient id="paint6_linear_7182_788" x1="100.889" y1="48.6832" x2="123.678" y2="60.6129" gradientUnits="userSpaceOnUse">
<stop stop-color="#F3E074"/>
<stop offset="1" stop-color="#ECD062"/>
</linearGradient>
<linearGradient id="paint7_linear_7182_788" x1="127.119" y1="47.9229" x2="148.753" y2="52.2487" gradientUnits="userSpaceOnUse">
<stop stop-color="#EBCD5E"/>
<stop offset="1" stop-color="#E5BE4D"/>
</linearGradient>
<linearGradient id="paint8_linear_7182_788" x1="154.355" y1="47.1626" x2="188.092" y2="57.6529" gradientUnits="userSpaceOnUse">
<stop stop-color="#E3BA47"/>
<stop offset="0.35" stop-color="#E3BB48"/>
<stop offset="1" stop-color="#ECD061"/>
</linearGradient>
<linearGradient id="paint9_linear_7182_788" x1="196.174" y1="48.9365" x2="220.123" y2="59.774" gradientUnits="userSpaceOnUse">
<stop stop-color="#F0D86A"/>
<stop offset="1" stop-color="#F8EC81"/>
</linearGradient>
<linearGradient id="paint10_linear_7182_788" x1="223.911" y1="50.2035" x2="247.617" y2="61.7956" gradientUnits="userSpaceOnUse">
<stop stop-color="#FAF186"/>
<stop offset="1" stop-color="#E0CC69"/>
</linearGradient>
<linearGradient id="paint11_linear_7182_788" x1="253.327" y1="49.1899" x2="275.788" y2="61.792" gradientUnits="userSpaceOnUse">
<stop stop-color="#DAC463"/>
<stop offset="1" stop-color="#C3A34B"/>
</linearGradient>
</defs>
</svg>
