<svg width="35" height="35" viewBox="0 0 35 35" fill="none" xmlns="http://www.w3.org/2000/svg">
<path d="M2.62953 0H31.8524C33.3049 0 34.4819 1.1937 34.4819 2.66669V32.3026C34.4819 33.7756 33.3049 34.9693 31.8524 34.9693H2.62953C1.17706 34.9693 0 33.7756 0 32.3026V2.66669C0 1.1937 1.17706 0 2.62953 0Z" fill="url(#paint0_linear_3351_188)"/>
<path d="M16.8937 29.3186L14.6603 26.6098C14.5849 26.518 14.5887 26.3841 14.6717 26.2961L15.3319 25.5883C15.4035 25.5117 15.4149 25.397 15.3621 25.3051L14.8377 24.4022C14.7697 24.2836 14.815 24.1267 14.9395 24.0694L17.8935 22.6346C18.0557 22.5543 18.2406 22.6844 18.2255 22.8642L18.0897 24.7198C18.0633 25.0565 17.9124 25.374 17.6634 25.5997L16.5127 26.6481C16.441 26.7131 16.4146 26.8202 16.4523 26.912L17.2936 29.0775C17.3465 29.2153 17.2635 29.3721 17.1163 29.3951C17.0333 29.4104 16.9503 29.3798 16.8975 29.3147" fill="black"/>
<path d="M28.0039 29.3293H26.9815L28.9131 25.3694C29.1545 24.872 28.6905 24.3249 28.1699 24.4894L26.0044 25.1819L24.8273 18.8882C24.7934 18.7084 24.567 18.6587 24.4614 18.8041L23.3371 20.3574C23.1221 20.652 23.0919 21.0461 23.2541 21.3751L25.2725 25.4153L22.1525 26.4139L22.3223 20.5372C22.3223 20.5181 22.3298 20.499 22.3412 20.4798L24.235 17.817C24.2614 17.7787 24.3105 17.7634 24.352 17.7825L24.6764 17.9126C24.7406 17.9394 24.8085 17.8935 24.8122 17.8246C24.8122 17.8246 24.1709 15.1732 24.6538 13.9757C24.7255 13.7921 24.6689 13.5816 24.518 13.4592C24.3105 13.2909 24.0539 13.1569 23.6503 13.1569C23.307 13.1569 22.8957 13.023 22.4996 12.805C23.0014 12.9236 23.5107 12.9733 23.8804 12.9733C24.6236 12.9733 24.8651 13.4324 25.2348 13.7002C25.2008 13.9681 25.2725 14.2473 25.6083 14.4539C26.1704 14.7983 26.1213 15.1579 26.0157 15.3684C25.9855 15.4334 26.0534 15.4984 26.1176 15.4602C26.4496 15.2497 26.4005 14.8098 26.0119 14.3966C25.8158 14.1861 25.8799 14.0025 26.0195 13.8648C26.8947 13.7041 26.9815 12.8547 26.9815 12.8547C26.9664 12.8585 26.7212 12.9733 26.4458 12.9848C25.8158 13.0154 24.9216 12.5065 24.7632 12.1928C24.7632 12.1928 25.7554 12.9427 26.193 12.8317C26.6307 12.7246 26.5665 12.342 26.5514 12.2655C26.5363 12.1852 26.3439 11.9862 26.193 11.9556C26.0421 11.9288 25.6347 11.6495 25.6573 11.5424C25.6762 11.4353 25.8799 11.661 26.0082 11.6074C26.1327 11.5577 26.4194 11.5041 26.5137 11.7681C26.5137 11.7681 26.7023 11.4276 26.9325 11.485C27.106 11.5271 27.0494 11.7146 26.8646 11.8293C26.6797 11.9403 26.6571 12.0092 26.6571 12.0245C26.6533 12.0398 26.5439 12.629 26.7325 12.717C26.7816 12.7399 26.8381 12.7323 26.8947 12.7017C27.0796 12.6137 27.1815 12.4109 27.1626 12.2043C27.14 11.9556 27.0683 11.6916 27.0456 11.4812C27.0192 11.2708 26.8872 11.0259 26.7438 10.8002C26.6721 10.716 26.5967 10.6318 26.5175 10.5438C26.1817 10.1689 25.8346 9.78245 25.7177 9.40368C25.5781 8.95222 25.8044 8.2712 25.9742 7.8733C26.0006 7.81209 25.9176 7.79296 25.8573 7.82739C25.5856 7.98808 25.5328 8.36685 25.3366 8.29416C25.231 8.2559 23.8917 7.34915 23.8238 7.36445C22.6996 7.58253 21.7489 8.28268 21.7489 8.28268C21.7489 8.28268 21.7187 8.36685 21.6696 8.50841C21.1188 8.01869 20.0851 7.54044 19.7192 7.3874C19.225 7.17698 19.5381 8.60406 20.0248 9.11674C20.3115 9.41899 20.8925 9.50699 21.3225 9.52612C21.3037 9.58733 21.2848 9.64472 21.2622 9.70976C20.9113 10.3717 20.5152 10.8882 20.2473 11.2019C20.1606 11.3014 20.2662 11.4544 20.3907 11.4047C20.5039 11.3587 20.6095 11.3052 20.7076 11.2516C20.6699 11.3281 20.6397 11.4085 20.6057 11.4888C19.7758 12.935 18.8326 13.6735 18.3044 13.9987C18.2026 14.0637 18.2554 14.2282 18.3761 14.2091C18.6968 14.1632 19.0137 14.0407 19.3193 13.8801C18.8137 14.4578 18.0668 15.1005 16.9086 15.8275C15.8937 16.4626 15.4825 17.8361 15.4825 17.8361C15.3731 17.97 15.1618 17.8591 15.2109 17.6907C15.2825 17.442 15.0147 17.2354 14.7997 17.3732L11.6646 19.3053C11.642 19.3206 11.6155 19.3244 11.5929 19.3167L9.66509 18.9112C9.57455 18.8921 9.50664 18.9992 9.567 19.0757L11.0836 21.0269C11.1062 21.0537 11.11 21.092 11.0987 21.1226L10.0612 24.0571C9.9669 24.3249 9.74809 24.5277 9.48023 24.6004L8.44653 24.8759C8.08058 24.9715 7.79763 25.2661 7.71086 25.6372L6.29612 31.4909L5.97167 31.5942C5.49632 31.7473 5.17188 32.1949 5.17188 32.6999V34.9649H29.2866V30.6378C29.2866 29.9108 28.7056 29.3216 27.9888 29.3216L28.0039 29.3293ZM23.5371 9.43047C24.0879 9.46873 24.3822 9.76332 24.3822 9.76332C24.3822 9.76332 24.2614 10.035 23.8993 9.9661C23.4767 9.88576 23.5371 9.43047 23.5371 9.43047ZM20.4133 9.15882C19.7946 8.95222 19.8399 8.08756 19.8399 8.08756C21.1679 8.23294 21.3527 9.32334 21.3527 9.32334C21.3527 9.32334 21.0321 9.36543 20.4133 9.15882ZM8.98979 28.1738C9.09542 27.9864 9.26896 27.8486 9.47268 27.7874L11.8079 27.0873C12.2758 26.9457 12.6568 26.5975 12.8454 26.1423L14.2828 22.6415C14.3243 22.5382 14.4752 22.5688 14.4752 22.6798V23.3302C14.4752 23.4564 14.6035 23.5406 14.7167 23.487C17.6593 22.1059 19.0778 21.18 19.0778 21.18C19.1306 21.1532 19.1948 21.18 19.2174 21.2374L21.149 26.7429L7.31096 31.1772L8.98979 28.1738Z" fill="black"/>
<path d="M19.9384 5.70035C20.7646 5.47079 22.085 6.25894 22.5377 7.35316C22.5566 7.39525 22.6018 7.41821 22.6471 7.39908C22.8169 7.32638 23.7072 6.95909 23.8808 7.04326C24.1335 7.16569 24.8088 7.74341 24.9371 7.68602C24.9861 7.66307 23.5186 4.87012 21.3342 4.87012C19.6931 4.87012 18.6406 6.04851 18.75 6.17859C18.75 6.17859 19.3876 5.85339 19.9384 5.70035Z" fill="black"/>
<path d="M24.6316 4.97389C25.5672 5.53248 25.0994 6.86774 25.1032 6.88687C25.1032 6.88687 25.4427 7.70562 25.5182 7.65588C25.9369 7.38041 26.0803 7.22355 26.069 7.08964C26.0426 6.72235 26.035 5.94951 25.8049 5.5363C25.4276 4.85528 24.3939 4.83615 24.6278 4.97771L24.6316 4.97389Z" fill="black"/>
<path d="M25.8532 9.37287C25.9249 9.61008 26.1022 9.85495 26.3097 10.1036C26.3437 10.1419 26.4078 10.1342 26.4304 10.0883C26.4682 10.0118 26.521 9.91616 26.5587 9.84347C26.5738 9.81669 26.5474 9.78608 26.5172 9.7899C26.3852 9.81669 26.2456 9.74399 26.2456 9.74399C26.2456 9.74399 26.3739 9.49913 26.5512 9.4647C26.6002 9.45322 26.6417 9.42261 26.653 9.37287C26.6643 9.31549 26.6719 9.2581 26.6719 9.24279C26.6719 9.21984 26.6681 9.17775 26.6606 9.12801C26.8681 9.07445 27.1548 8.95967 27.3472 8.70333C27.4943 8.51203 27.6264 7.73154 27.4717 7.73537C27.2453 7.73919 26.8115 7.96492 26.4229 8.26717C26.3927 8.20596 26.3625 8.14857 26.3286 8.09501C26.3022 8.05675 26.2456 8.05675 26.2267 8.10266C26.0758 8.4623 25.7287 8.95967 25.857 9.37287H25.8532Z" fill="black"/>
<defs>
<linearGradient id="paint0_linear_3351_188" x1="-2.31146" y1="11.9487" x2="37.0032" y2="24.479" gradientUnits="userSpaceOnUse">
<stop offset="0.1" stop-color="#D39820"/>
<stop offset="1" stop-color="#FFFD96"/>
</linearGradient>
<linearGradient id="paint1_linear_3351_188" x1="40.3961" y1="3.0554" x2="66.1924" y2="16.2021" gradientUnits="userSpaceOnUse">
<stop stop-color="#FCF68D"/>
<stop offset="1" stop-color="#EACB5B"/>
</linearGradient>
<linearGradient id="paint2_linear_3351_188" x1="68.8223" y1="5.3696" x2="95.5063" y2="18.2437" gradientUnits="userSpaceOnUse">
<stop stop-color="#E7C554"/>
<stop offset="0.43756" stop-color="#E4BB49"/>
<stop offset="1" stop-color="#F2DD70"/>
</linearGradient>
<linearGradient id="paint3_linear_3351_188" x1="97.3385" y1="17.4851" x2="128.458" y2="20.3123" gradientUnits="userSpaceOnUse">
<stop stop-color="#F5E477"/>
<stop offset="1" stop-color="#BF9D45"/>
</linearGradient>
<linearGradient id="paint4_linear_3351_188" x1="121.378" y1="0.0605469" x2="144.989" y2="4.17118" gradientUnits="userSpaceOnUse">
<stop stop-color="#D1B75A"/>
<stop offset="1" stop-color="#B58F3B"/>
</linearGradient>
<linearGradient id="paint5_linear_3351_188" x1="39.9932" y1="25.6075" x2="52.8651" y2="31.957" gradientUnits="userSpaceOnUse">
<stop stop-color="#FBF38A"/>
<stop offset="1" stop-color="#F4E378"/>
</linearGradient>
<linearGradient id="paint6_linear_3351_188" x1="53.7812" y1="25.9252" x2="65.9839" y2="32.2777" gradientUnits="userSpaceOnUse">
<stop stop-color="#F3E074"/>
<stop offset="1" stop-color="#ECD062"/>
</linearGradient>
<linearGradient id="paint7_linear_3351_188" x1="67.7931" y1="25.5168" x2="79.3549" y2="27.8157" gradientUnits="userSpaceOnUse">
<stop stop-color="#EBCD5E"/>
<stop offset="1" stop-color="#E5BE4D"/>
</linearGradient>
<linearGradient id="paint8_linear_3351_188" x1="82.3418" y1="25.1084" x2="100.381" y2="30.6865" gradientUnits="userSpaceOnUse">
<stop stop-color="#E3BA47"/>
<stop offset="0.35" stop-color="#E3BB48"/>
<stop offset="1" stop-color="#ECD061"/>
</linearGradient>
<linearGradient id="paint9_linear_3351_188" x1="104.681" y1="26.0613" x2="117.498" y2="31.8292" gradientUnits="userSpaceOnUse">
<stop stop-color="#F0D86A"/>
<stop offset="1" stop-color="#F8EC81"/>
</linearGradient>
<linearGradient id="paint10_linear_3351_188" x1="119.498" y1="26.742" x2="132.188" y2="32.9131" gradientUnits="userSpaceOnUse">
<stop stop-color="#FAF186"/>
<stop offset="1" stop-color="#E0CC69"/>
</linearGradient>
<linearGradient id="paint11_linear_3351_188" x1="135.211" y1="26.1974" x2="147.242" y2="32.9097" gradientUnits="userSpaceOnUse">
<stop stop-color="#DAC463"/>
<stop offset="1" stop-color="#C3A34B"/>
</linearGradient>
</defs>
</svg>
