<svg width="100" height="30" viewBox="0 0 100 39" fill="none" xmlns="http://www.w3.org/2000/svg">
<g clip-path="url(#clip0_18_444)">
<path d="M13.558 38.415L18.582 32.77C18.667 32.685 18.61 32.544 18.469 32.544H12.937C12.8946 32.5371 12.8552 32.5176 12.824 32.488L8.139 27.238C8.111 27.182 8.082 27.125 8.111 27.068L15.957 13.605C15.985 13.549 15.985 13.492 15.957 13.465L12.711 7.87501C12.655 7.79101 12.514 7.79101 12.457 7.87501L0.857004 27.804C0.843171 27.83 0.835937 27.859 0.835938 27.8885C0.835938 27.918 0.843171 27.947 0.857004 27.973L10.17 38.443C10.198 38.472 10.226 38.5 10.283 38.5H13.444C13.472 38.472 13.53 38.444 13.558 38.415Z" fill="white"/>
<path d="M17.0011 0.0862148L13.7271 5.67421C13.6991 5.73122 13.6991 5.78722 13.7271 5.81522L17.1141 11.6302L26.0901 27.0402C26.1181 27.0972 26.1181 27.1542 26.0621 27.2102L21.3201 32.5162L16.2671 38.2182C16.1831 38.3032 16.2391 38.4442 16.3801 38.4442H23.9451C23.9876 38.437 24.027 38.4171 24.0581 38.3872L33.3721 27.9162C33.4001 27.8592 33.4281 27.8032 33.4001 27.7462L17.2271 0.0862148C17.1991 -0.0267852 17.0571 -0.0267852 17.0011 0.0862148ZM47.3441 30.6252V12.6742C47.3449 12.6442 47.336 12.6148 47.3188 12.5902C47.3016 12.5656 47.277 12.5472 47.2485 12.5376C47.2201 12.5281 47.1893 12.528 47.1608 12.5373C47.1323 12.5466 47.1075 12.5648 47.0901 12.5892L41.6141 18.7142C41.5861 18.7422 41.5861 18.7702 41.5861 18.7982V36.4112C41.5861 36.4962 41.6421 36.5522 41.7271 36.5522H55.5571C55.6421 36.5522 55.6991 36.4962 55.6991 36.4112V30.9072C55.6991 30.8222 55.6421 30.7662 55.5571 30.7662H47.4851C47.4291 30.7662 47.3441 30.7102 47.3441 30.6252ZM63.6591 36.4102V19.5902C63.6599 19.5602 63.651 19.5308 63.6338 19.5062C63.6166 19.4816 63.592 19.4632 63.5635 19.4536C63.5351 19.4441 63.5043 19.444 63.4758 19.4533C63.4473 19.4626 63.4225 19.4808 63.4051 19.5052L57.9291 25.6302C57.9011 25.6582 57.9011 25.6862 57.9011 25.7142V36.4122C57.9011 36.4962 57.9571 36.5532 58.0421 36.5532H63.5181C63.6021 36.5532 63.6581 36.4682 63.6581 36.4122L63.6591 36.4102ZM93.2951 27.9712C93.2812 27.9452 93.274 27.9162 93.274 27.8867C93.274 27.8572 93.2812 27.8282 93.2951 27.8022L98.9121 19.4482C98.9681 19.3632 98.9121 19.2222 98.7991 19.2222H92.5041C92.4481 19.2222 92.4201 19.2502 92.3921 19.2782L88.2421 25.9962C88.2246 26.0207 88.1999 26.0389 88.1713 26.0482C88.1428 26.0574 88.112 26.0573 88.0836 26.0478C88.0551 26.0383 88.0305 26.0199 88.0133 25.9953C87.9961 25.9707 87.9872 25.9412 87.9881 25.9112V12.6452C87.9889 12.6152 87.98 12.5858 87.9628 12.5612C87.9456 12.5366 87.921 12.5182 87.8925 12.5086C87.8641 12.4991 87.8333 12.499 87.8048 12.5083C87.7763 12.5176 87.7515 12.5358 87.7341 12.5602L82.2591 18.6852C82.2311 18.7142 82.2311 18.7422 82.2311 18.7702V36.4102C82.2311 36.4962 82.2871 36.5522 82.3711 36.5522H87.8471C87.9321 36.5522 87.9881 36.4962 87.9881 36.4112V29.6652C87.9869 29.6349 87.9956 29.6051 88.0128 29.5802C88.0301 29.5553 88.0549 29.5367 88.0837 29.5271C88.1124 29.5175 88.1435 29.5175 88.1722 29.5271C88.201 29.5367 88.2258 29.5553 88.243 29.5802L92.8431 36.4962C92.8742 36.5258 92.9136 36.5453 92.9561 36.5522H99.0531C99.1661 36.5522 99.2231 36.4112 99.1661 36.3262L93.2951 27.9712ZM72.9441 36.8902C76.5011 36.8902 80.2831 35.3952 80.2831 31.2182C80.2831 27.0402 76.7831 26.2502 74.2141 25.6582C72.8041 25.3182 71.6741 25.0642 71.6741 24.3022C71.6741 23.7102 72.2101 23.3422 73.0851 23.3422C73.9891 23.3422 74.7221 23.7942 75.2311 24.6692C75.2591 24.7262 75.3431 24.7542 75.4001 24.7262L79.7461 22.7782C79.8311 22.7502 79.8591 22.6652 79.8031 22.5812C78.4761 20.1532 76.1621 18.9112 72.9441 18.9112C68.2871 18.8832 66.1701 21.7342 66.1701 24.5562C66.1701 28.4232 69.6141 29.2982 72.1261 29.9472C73.5931 30.3142 74.6381 30.5972 74.6381 31.3302C74.6381 31.8102 74.3561 32.4032 72.9441 32.4032C71.6461 32.4032 70.7141 31.8392 70.2341 30.7092C70.2061 30.6252 70.1221 30.5972 70.0371 30.6252L65.5491 32.8832C65.4641 32.9112 65.4361 32.9962 65.493 33.0802C66.7631 35.6492 69.2191 36.8902 72.9441 36.8902Z" fill="white"/>
</g>
<defs>
<clipPath id="clip0_18_444">
<rect width="99" height="39" fill="white" transform="translate(0.5)"/>
</clipPath>
</defs>
</svg>