<svg xmlns="http://www.w3.org/2000/svg" fill="none" viewBox="0 0 702 67"><script/><g fill="#fff" clip-path="url(#a)"><path d="M102.027 56.297V2.034a.974.974 0 0 0-.975-.975h-7.798a.975.975 0 0 0-.975.975V65.07a.975.975 0 0 0 .975.974h40.291a.975.975 0 0 0 .974-.974V57.27a.973.973 0 0 0-.974-.974h-31.518ZM202.754 1.06h-46.79a.974.974 0 0 0-.974.974v7.798c0 .539.436.975.974.975h46.79a.974.974 0 0 0 .974-.975V2.034a.974.974 0 0 0-.974-.975ZM202.754 56.297h-46.79a.974.974 0 0 0-.974.974v7.799c0 .538.436.974.974.974h46.79a.974.974 0 0 0 .974-.974V57.27a.974.974 0 0 0-.974-.974ZM202.754 28.639h-46.79a.974.974 0 0 0-.974.975v7.798c0 .538.436.975.974.975h46.79a.974.974 0 0 0 .974-.975v-7.798a.974.974 0 0 0-.974-.975ZM545.817 1.06h-46.789a.975.975 0 0 0-.975.974v7.798c0 .539.436.975.975.975h46.789a.975.975 0 0 0 .975-.975V2.034a.975.975 0 0 0-.975-.975ZM545.817 56.297h-46.789a.975.975 0 0 0-.975.974v7.799c0 .538.436.974.975.974h46.789a.975.975 0 0 0 .975-.974V57.27a.975.975 0 0 0-.975-.974ZM545.817 28.639h-46.789a.975.975 0 0 0-.975.975v7.798c0 .538.436.975.975.975h46.789a.975.975 0 0 0 .975-.975v-7.798a.975.975 0 0 0-.975-.975ZM357.743 1.06h-7.798a.975.975 0 0 0-.975.974V65.07c0 .538.437.974.975.974h7.798a.975.975 0 0 0 .975-.974V2.034a.975.975 0 0 0-.975-.975ZM338.248 28.691h-25.02V2.047a.973.973 0 0 0-.974-.975h-7.799a.975.975 0 0 0-.974.975v26.644h-8.773a.973.973 0 0 0-.975.962v7.798a.978.978 0 0 0 .975.975h8.773V65.07a.973.973 0 0 0 .974.974h7.799a.975.975 0 0 0 .974-.974V38.426h25.02a.975.975 0 0 0 .975-.975v-7.798a.976.976 0 0 0-.975-.962ZM56.446 38.393H67.26a.974.974 0 0 0 .974-.942v-7.798a.975.975 0 0 0-.974-.975H52.105L40.167 1.833a1.3 1.3 0 0 0-1.176-.774h-9.748a1.3 1.3 0 0 0-1.182.774L16.129 28.646H.975A.973.973 0 0 0 0 29.652v7.798a.975.975 0 0 0 .975.975h10.813L.091 64.706a.975.975 0 0 0 .884 1.338h8.701a1.3 1.3 0 0 0 1.19-.773L34.117 13.05 57.37 65.271a1.3 1.3 0 0 0 1.19.773h8.7a.974.974 0 0 0 .89-1.37l-11.703-26.28ZM277.669 15.447a23.585 23.585 0 0 0-21.705-14.388h-27.457a.975.975 0 0 0-.974.975v7.798a.973.973 0 0 0 .974.975h27.457a13.65 13.65 0 0 1 5.374 1.085 13.857 13.857 0 0 1 6.076 5.004 13.647 13.647 0 0 1 2.359 7.72 13.778 13.778 0 0 1-1.085 5.375 13.93 13.93 0 0 1-5.011 6.082 13.689 13.689 0 0 1-7.713 2.353h-27.457a.975.975 0 0 0-.974.974v25.67a.973.973 0 0 0 .974.974h7.799a.975.975 0 0 0 .974-.974V48.174h18.684a23.562 23.562 0 0 0 23.557-23.558c0-3.149-.629-6.267-1.852-9.169ZM618.587 37.789a23.468 23.468 0 0 0 4.023-13.173 23.54 23.54 0 0 0-1.792-9.015 23.535 23.535 0 0 0-12.749-12.75 23.552 23.552 0 0 0-9.016-1.792h-27.457a.975.975 0 0 0-.974.975v7.798a.973.973 0 0 0 .974.975h27.457a13.65 13.65 0 0 1 5.374 1.085 13.79 13.79 0 0 1 8.448 12.724 13.74 13.74 0 0 1-1.079 5.375 13.973 13.973 0 0 1-5.01 6.082 13.711 13.711 0 0 1-7.72 2.353h-27.47a.975.975 0 0 0-.974.974v25.67a.973.973 0 0 0 .974.974h7.799a.975.975 0 0 0 .974-.974V48.174h18.684c1.631 0 3.258-.17 4.854-.507l7.928 17.8a.97.97 0 0 0 .891.577h8.909a.975.975 0 0 0 .89-1.37l-9.422-21.16a23.798 23.798 0 0 0 5.484-5.725ZM476.634 1.06h-46.79a.975.975 0 0 0-.974.974v7.798a.973.973 0 0 0 .974.975h33.273l-12.939 16.52a.849.849 0 0 0-.097.882.848.848 0 0 0 .747.482h9.852a1.953 1.953 0 0 0 1.533-.747L477.16 8.825a1.95 1.95 0 0 0 .481-1.202V2.034a.976.976 0 0 0-1.007-.975ZM476.634 56.297h-36.639l12.952-16.494a.85.85 0 0 0-.208-1.23.846.846 0 0 0-.442-.134h-9.878a1.951 1.951 0 0 0-1.54.747L426.036 58.13a1.955 1.955 0 0 0-.416 1.203v5.738a.974.974 0 0 0 .975.974h50.039a.975.975 0 0 0 .974-.974V57.27a.974.974 0 0 0-.974-.974ZM692.956 38.367a.981.981 0 0 0-.962.813 26.136 26.136 0 0 1-1.221 4.464 20.796 20.796 0 0 1-7.623 9.995 20.482 20.482 0 0 1-11.762 3.548 21.21 21.21 0 0 1-8.234-1.612 19.759 19.759 0 0 1-9.182-7.902 24.282 24.282 0 0 1-3.185-8.493.977.977 0 0 0-.961-.813h-7.909a.976.976 0 0 0-.968 1.105 36.748 36.748 0 0 0 1.949 7.597 29.899 29.899 0 0 0 28.516 19.866 31.014 31.014 0 0 0 12.002-2.372 29.595 29.595 0 0 0 13.693-11.75 34.534 34.534 0 0 0 4.744-13.341.987.987 0 0 0-.233-.773.979.979 0 0 0-.736-.332h-7.928ZM649.806 28.62a.975.975 0 0 0 .962-.813c.274-1.55.685-3.072 1.228-4.549a20.84 20.84 0 0 1 7.603-9.962 20.569 20.569 0 0 1 11.769-3.548c2.823-.017 5.62.531 8.227 1.611a19.81 19.81 0 0 1 9.209 7.896 24.453 24.453 0 0 1 3.19 8.546.983.983 0 0 0 .962.812h7.902a.984.984 0 0 0 .94-.693.974.974 0 0 0 .035-.412 36.759 36.759 0 0 0-1.949-7.648 30.641 30.641 0 0 0-11.217-14.596 30.268 30.268 0 0 0-17.299-5.27 30.936 30.936 0 0 0-11.99 2.365 29.497 29.497 0 0 0-13.685 11.762 34.428 34.428 0 0 0-4.751 13.394.987.987 0 0 0 .233.772.978.978 0 0 0 .735.332h7.896Z"/></g><defs><clipPath id="a"><path fill="#fff" d="M0 0h701.84v66.935H0z"/></clipPath></defs></svg>
