<svg xmlns="http://www.w3.org/2000/svg" xml:space="preserve" id="LOGOS" x="0" y="0" style="enable-background:new 0 0 1911 199.58" version="1.1" viewBox="0 0 1911 199.58"><style>.st0{fill:#fff;stroke:#fff;stroke-width:10;stroke-miterlimit:10}.st1,.st3{fill:#133629}.st3{stroke:#133629;stroke-width:10;stroke-miterlimit:10}.st4{fill:#f0ebde}.st5{stroke:#231f20;stroke-width:10;stroke-miterlimit:10}</style><path d="M753.22 199.51h106.91V.59H753.22v198.92zM672.86.55h63.38v25.68h-58.61c-9.67 0-17.59 2.8-23.75 8.38-6.17 5.59-9.25 12.93-9.25 22.03 0 9.29 3.08 16.73 9.25 22.31 6.16 5.59 14.08 8.38 23.75 8.38h58.61V199.5H608.29v-25.73h67.07c10.43 0 18.92-2.94 25.46-8.81 6.54-5.87 9.81-13.36 9.81-22.45s-3.27-16.48-9.81-22.17c-6.54-5.68-15.03-8.53-25.46-8.53l-8.51.15c-27.37 0-49.6-22.08-49.77-49.42l-.04-6v-.22c0-30.8 24.99-55.77 55.82-55.77zm265.45 0h61.41v25.68h-56.64c-9.67 0-17.59 2.8-23.75 8.38-6.17 5.59-9.25 12.93-9.25 22.03 0 9.29 3.08 16.73 9.25 22.31 6.16 5.59 14.08 8.38 23.75 8.38h56.64v55.33c0 31.4-25.47 56.85-56.89 56.85h-65.17v-25.73h61.19c10.43 0 18.92-2.94 25.46-8.81 6.54-5.87 9.81-13.36 9.81-22.45s-3.27-16.48-9.81-22.17c-6.54-5.68-15.03-8.38-25.46-8.38h-56l-.35-55.43v-.22C882.49 25.52 907.48.55 938.31.55zM99.56.55h71.69v25.68h-69.7c-13.09 0-25.18 3.27-36.27 9.81-11.09 6.54-19.87 15.45-26.31 26.72-6.45 11.27-9.67 23.54-9.67 36.8 0 13.27 3.22 26.66 9.67 37.84 6.44 11.18 15.22 20.04 26.31 26.57 11.1 6.54 23.19 9.81 36.27 9.81h42.38v-61.81H75.1V86.95h96.15V199.5H99.63C44.62 199.55 0 155 0 100.03 0 45.09 44.58.55 99.56.55zm280.51 92.36v106.67H354.7V93.24c0-37.01-30.03-67.02-67.07-67.02-37.04 0-67.07 30-67.07 67.02v106.34h-25.6V.66h92.8c50.98 0 92.31 41.3 92.31 92.25zm461.15-32.33c0 19.08-15.46 34.54-34.54 34.54s-34.54-15.46-34.54-34.54 15.46-34.54 34.54-34.54c19.07.01 34.54 15.47 34.54 34.54zm227.61 39.29v.23c0 54.94 44.58 99.41 99.56 99.41h42.07v-25.73h-41.4c-41.32 0-74.71-33.91-73.82-75.39.86-40.34 34.8-72.16 75.18-72.16h40.04V.66h-42.35c-54.83 0-99.28 44.42-99.28 99.21zM1818.68.66h-92.8V199.5h25.6V93.24c0-37.01 30.03-67.02 67.07-67.02 37.04 0 67.07 30 67.07 67.02V199.5H1911V92.91c0-50.95-41.33-92.25-92.32-92.25zm-463.19 66.69c0 5.5-1.95 10.14-5.83 13.92-3.89 3.79-8.49 5.68-13.79 5.68h-59.15c-5.5 0-10.15-1.89-13.94-5.68-3.79-3.79-5.69-8.43-5.69-13.92V.66h-25.6V199.5h25.6v-67.93c0-5.49 1.89-10.13 5.69-13.92 3.79-3.79 8.44-5.68 13.94-5.68h59.15c5.31 0 9.91 1.9 13.79 5.68 3.88 3.79 5.83 8.43 5.83 13.92v67.93h25.31V.66h-25.31v66.69zM1597.94.66V199.5h106.91V.66h-106.91zm53.46 94.46c-19.08 0-34.54-15.46-34.54-34.54s15.46-34.54 34.54-34.54 34.54 15.46 34.54 34.54c-.01 19.08-15.47 34.54-34.54 34.54zm-147.15-83.88C1500.87 3.75 1496.09 0 1489.9 0c-6.19 0-10.97 3.75-14.35 11.24L1390.3 199.5h198.34l-84.39-188.26zm-14.35 155.67c-19.08 0-34.54-15.46-34.54-34.54s15.46-34.54 34.54-34.54 34.54 15.46 34.54 34.54-15.47 34.54-34.54 34.54zM587.4 49.39c-9.13-15.36-21.45-27.43-36.93-36.22C534.98 4.4 518.11 0 499.85 0c-17.71 0-34.44 4.4-50.2 13.17-15.77 8.78-28.08 20.86-36.93 36.22-8.86 15.37-13.28 32.1-13.28 50.22 0 18.11 4.42 34.86 13.28 50.21 8.84 15.37 21.16 27.58 36.93 36.63 15.77 9.06 32.49 13.58 50.2 13.58 18.25 0 35.12-4.53 50.62-13.58 15.48-9.06 27.8-21.26 36.93-36.63 9.13-15.36 13.69-32.11 13.69-50.21 0-18.12-4.56-34.85-13.69-50.22zm-87.13 85.31c-19.13 0-34.63-15.51-34.63-34.65s15.51-34.65 34.63-34.65c19.13 0 34.63 15.51 34.63 34.65.01 19.14-15.5 34.65-34.63 34.65z" style="fill:#fff"/></svg>
