<svg xmlns="http://www.w3.org/2000/svg" width="3840" height="919" fill="none"><path fill="#fff" d="M837.765.788H69.157C30.969.788 0 32.074 0 70.712v777.044c0 38.612 30.969 69.924 69.157 69.924h66.883v-56.833c0-13.249 8.542-24.991 21.024-28.985l8.543-2.724 37.209-153.467c2.275-9.733 9.733-17.455 19.359-19.967l27.187-7.22c7.035-1.904 12.8-7.22 15.286-14.255l27.292-76.932c.291-.793.212-1.798-.396-2.512l-39.881-51.147c-1.587-2.01.211-4.814 2.591-4.311l50.698 10.631c.608.212 1.296.106 1.878-.291l82.459-50.671c5.66-3.623 12.694 1.799 10.817 8.331-1.296 4.416 4.258 7.325 7.14 3.808 0 0 10.817-36.02 37.501-52.654 30.466-19.068 50.116-35.915 63.392-51.068-8.04 4.205-16.371 7.431-24.807 8.621-3.173.503-4.575-3.808-1.878-5.527 13.885-8.516 38.691-27.874 60.536-65.798.899-2.116 1.693-4.205 2.671-6.215-2.565 1.401-5.369 2.803-8.33 4.02-3.28 1.295-6.057-2.698-3.782-5.316 7.034-8.225 17.454-21.765 26.684-39.114.608-1.693 1.084-3.2 1.587-4.813-11.319-.503-26.605-2.804-34.142-10.738-12.8-13.434-21.025-50.856-8.04-45.355 9.626 4.02 36.813 16.555 51.306 29.382 1.296-3.703 2.089-5.924 2.089-5.924s24.992-18.354 54.585-24.066c1.772-.397 36.998 23.378 39.775 24.383 5.157 1.904 6.559-8.013 13.699-12.244 1.587-.899 3.782-.397 3.068 1.216-4.469 10.42-10.42 28.298-6.744 40.119 3.068 9.944 12.192 20.073 21.025 29.884a306.208 306.208 0 0 1 5.951 6.718c3.781 5.924 7.246 12.35 7.934 17.851.608 5.527 2.485 12.43 3.067 18.962.503 5.422-2.195 10.737-7.034 13.038-1.481.793-2.989 1.005-4.258.397-4.972-2.301-2.09-17.746-1.984-18.169 0-.397.582-2.195 5.448-5.104 4.866-3.015 6.347-7.934 1.772-9.018-6.056-1.508-11.028 7.431-11.028 7.431-2.486-6.929-10.023-5.527-13.302-4.205-3.386 1.402-8.728-4.522-9.23-1.692-.609 2.803 10.129 10.129 14.096 10.843 3.967.793 9.018 6.029 9.441 8.119.397 2.01 2.089 12.033-9.441 14.836-11.505 2.909-37.607-16.74-37.607-16.74 4.178 8.224 27.689 21.58 44.245 20.76 7.246-.291 13.699-3.306 14.096-3.412 0 0-2.275 22.268-25.31 26.473-3.676 3.623-5.368 8.436-.211 13.937 10.208 10.843 11.504 22.374 2.777 27.875-1.693 1.005-3.465-.714-2.671-2.407 2.776-5.527 4.072-14.942-10.711-23.987-8.833-5.421-10.711-12.747-9.838-19.755-9.732-7.035-16.079-19.068-35.623-19.068-9.733 0-23.114-1.296-36.311-4.416 10.42 5.712 21.236 9.229 30.255 9.229 10.604 0 17.375 3.518 22.823 7.934 3.967 3.2 5.448 8.728 3.57 13.541-12.694 31.391 4.178 100.919 4.178 100.919-.105 1.798-1.877 3.015-3.57 2.301l-8.542-3.412c-1.084-.503-2.38-.106-3.068.899l-49.798 69.818c-.291.503-.503 1.005-.503 1.508l-4.469 154.076 82.063-26.182-53.078-105.944c-4.258-8.621-3.464-18.962 2.195-26.684l29.567-40.727c2.777-3.809 8.727-2.513 9.627 2.195l30.968 165.024 56.965-18.168c13.7-4.311 25.891 10.023 19.544 23.061l-50.803 103.828h26.896l-.397-.212c18.856 0 34.142 15.445 34.142 34.513v110.915h67.465c38.214 0 69.157-31.312 69.157-69.924V70.712c0-38.612-30.969-69.924-69.157-69.924h.026ZM655.894 204.953c-3.385 1.508-21.131-13.646-27.795-16.846-4.575-2.195-27.98 7.431-32.45 9.336-1.19.502-2.38-.106-2.882-1.217-11.901-28.694-46.651-49.349-68.364-43.345-14.492 4.019-31.259 12.535-31.259 12.535-2.883-3.411 24.806-34.301 67.967-34.301 57.441 0 96.053 73.23 94.757 73.838h.026Zm15.26-.793c-1.984 1.296-10.923-20.152-10.923-20.152-.106-.503 12.192-35.517-12.403-50.169l-.106.106c-6.162-3.702 21.025-3.2 30.969 14.651 6.056 10.843 6.241 31.101 6.955 40.728.291 3.517-3.464 7.616-14.492 14.836Zm48.132 27.504c-5.051 6.717-12.615 9.732-18.063 11.134.185 1.296.291 2.407.291 3.015 0 .397-.212 1.904-.503 3.411-.29 1.296-1.401 2.116-2.671 2.407-4.654.899-8.039 7.326-8.039 7.326s3.676 1.904 7.14 1.216c.794-.106 1.481.714 1.085 1.402-1.005 1.904-2.381 4.416-3.386 6.426-.608 1.217-2.274 1.402-3.173.397-5.448-6.532-10.129-12.932-12.007-19.147h.106c-3.385-10.843 5.765-23.881 9.732-33.296.503-1.217 1.984-1.217 2.671-.212.899 1.402 1.693 2.909 2.486 4.523 10.209-7.934 21.633-13.832 27.584-13.937 4.072-.106.608 20.363-3.28 25.388l.027-.053Z"/><path fill="#fff" d="m375.673 597.099-37.791 91.795c-4.972 11.927-14.995 21.078-27.293 24.78l-61.435 18.354a21.718 21.718 0 0 0-12.694 10.129l-44.165 78.757 231.246-73.865-37.95-45.91a6.214 6.214 0 0 1 .291-8.225l17.375-18.565c1.878-2.01 2.195-5.025.793-7.432l-13.805-23.669c-1.772-3.121-.582-7.22 2.671-8.727l77.7-37.607c4.257-2.116 9.124 1.296 8.727 6.03l-3.57 48.661c-.688 8.833-4.655 17.164-11.214 23.088l-30.254 27.477c-1.878 1.693-2.592 4.522-1.587 6.929l12.139 31.154 111.392-35.57-50.804-144.344c-.582-1.508-2.274-2.222-3.676-1.508 0 0-37.315 24.278-114.697 60.483-2.962 1.402-6.347-.793-6.347-4.099v-17.058c0-2.909-3.967-3.703-5.052-1.005v-.053ZM536.911 243.592c16.265 5.421 24.701 4.311 24.701 4.311s-4.866-28.589-39.802-32.397c0 0-1.19 22.664 15.075 28.086h.026ZM641.297 259.432s-7.749-7.722-22.215-8.727c0 0-1.586 11.927 9.521 14.043 9.521 1.798 12.694-5.316 12.694-5.316ZM1353.34 2.456h-103.52c-108.87 0-197.97 89.785-197.97 199.458v145.904c0 109.647 89.07 199.458 197.97 199.458h298.85c108.8 0 197.87-89.785 197.87-199.458V238.251h-332.78v74.738h258.52v34.803c0 68.602-55.67 124.72-123.72 124.72h-298.84c-68.05 0-123.72-56.118-123.72-124.72V201.888c0-68.602 55.67-124.72 123.72-124.72h298.84c44.8 0 85.63 24.568 107.48 63.074h80.74c-26.21-80.9-101.98-137.918-188.22-137.918h-195.22v.132ZM1884.19 347.792V201.861c0-68.601 55.62-124.72 123.58-124.72h346.42c68 0 123.59 56.013 123.59 124.72v145.931c0 68.601-55.62 124.72-123.59 124.72h-346.42c-67.99 0-123.58-56.119-123.58-124.72ZM2257.43 2.377H2007.8c-108.67 0-197.66 89.812-197.66 199.484v145.931c0 109.672 88.99 199.484 197.66 199.484h346.42c108.67 0 197.66-89.812 197.66-199.484V201.861c0-109.672-88.99-199.484-197.66-199.484h-96.9.11ZM2915.04 2.377l-372.55 544.899h89.97l324.53-474.578 273.37 399.709h-383.52l-46.81 74.843h571.37L2998.82 2.377h-83.78ZM3192.41 2.377V77.22h286.73v470.056h74.16V77.22H3840V2.377h-647.59ZM1325.33 659.118v227.57l-220.03-227.57h-53.45v259.359h35.01V690.801l220.04 227.676h53.44V659.118h-35.01ZM1428.65 918.477H1723V882.88h-294.35v35.597Zm0-111.947h253.73v-35.597h-253.73v35.597Zm0-111.815H1723v-35.597h-294.35v35.597ZM1791.29 659.118v35.597h135.56v223.762h35.01V694.715h135.57v-35.597h-306.14ZM2629 659.118l-133.16 233.336-18.88-33.032-.72-1.348-58.6-102.771v.106l-54.96-96.291h-40.62l75.27 131.888-57.79 101.448-133.26-233.336h-40.54l147.81 259.359h51.7l52.42-91.769 18.59 32.714h.21l33.61 59.055h51.7l147.92-259.359H2629ZM2772.97 823.508V754.06c0-32.608 26.24-59.372 58.45-59.372h163.89c32.21 0 58.44 26.764 58.44 59.372v69.448c0 32.714-26.23 59.372-58.44 59.372h-163.89c-32.1 0-58.45-26.658-58.45-59.372Zm176.45-164.39h-118c-51.44 0-93.49 42.684-93.49 94.969v69.448c0 52.258 42.13 94.968 93.49 94.968h163.89c51.36 0 93.49-42.79 93.49-94.968v-69.448c0-52.258-42.13-94.969-93.49-94.969h-45.89ZM3287.7 659.118h-130.59v35.57h235.58c24.41 0 44.24 20.258 44.24 45.038v.424c-.21 24.462-20.15 44.614-44.24 44.614h-235.58v133.739h35.01V820.44h170.9l66.72 98.063h45.25l-67.73-99.517c.93-.212 1.72-.317 2.54-.503l1.72-.423c35.22-8.833 60.35-41.229 60.35-78.228 0-44.297-35.76-80.502-79.29-80.502h-105.09l.21-.212ZM3794.59 659.117l-90.21 111.842h-125.94V659.117h-35.14v259.359h35.14V806.529h125.94l90.21 111.947H3840L3735.48 788.73 3840 659.091h-45.41v.026Z"/></svg>